<svg id="Layer_1" data-name="Layer 1" xmlns="http://www.w3.org/2000/svg" viewBox="0 0 111.82 35.79"><title>CWA_virtual_business_platform_logo</title><path d="M37.28,91.53a13.33,13.33,0,0,1-3.76-.46A6.9,6.9,0,0,1,31,89.78a4.87,4.87,0,0,1-1.42-2,7,7,0,0,1-.44-2.54V71.83a7,7,0,0,1,.44-2.55,4.87,4.87,0,0,1,1.42-2A6.88,6.88,0,0,1,33.52,66a13.32,13.32,0,0,1,3.76-.46H58.2V69.4H37.28Q34,69.4,34,71.79V85.3q0,2.4,3.25,2.4H58.2v3.84Z" transform="translate(-29.13 -65.56)" fill="#fff"/><path d="M93.65,91.53l-9-19.92L75.47,91.53H71.89l-12-26h4.72l9,19.92,9.11-19.92h3.65l9,19.92,9.11-19.92h4.76l-12,26Z" transform="translate(-29.13 -65.56)" fill="#fff"/><path d="M135.42,91.53,122,70.61,108.41,91.53H103l17.27-26h3.58l17.16,26Z" transform="translate(-29.13 -65.56)" fill="#fff"/><text transform="translate(19.83 33.9)" font-size="6.8" fill="#fff" font-family="TitilliumWeb-Light, Titillium Web">Virtual Business Plat<tspan x="58.46" y="0" letter-spacing="-0.01em">f</tspan><tspan x="60.59" y="0">orm</tspan></text></svg>